<svg xmlns="http://www.w3.org/2000/svg" width="64" height="64" viewBox="0 0 64 64" shape-rendering="crispEdges">
	<rect width="64" height="64" fill="#102B3F" />
	<rect x="4" y="4" width="56" height="56" fill="#1A4868" />

	<rect x="10" y="10" width="44" height="18" fill="#2A6A94" />
	<rect x="13" y="13" width="7" height="7" fill="#FFD260" />
	<rect x="38" y="13" width="13" height="4" fill="#DDEFFF" />
	<rect x="35" y="17" width="19" height="4" fill="#DDEFFF" />
	<rect x="40" y="21" width="3" height="4" fill="#8FCEFF" />
	<rect x="46" y="21" width="3" height="4" fill="#8FCEFF" />

	<rect x="22" y="10" width="20" height="46" fill="#2A3038" />
	<rect x="31" y="12" width="2" height="4" fill="#F5CF69" />
	<rect x="31" y="20" width="2" height="4" fill="#F5CF69" />
	<rect x="31" y="28" width="2" height="4" fill="#F5CF69" />
	<rect x="31" y="36" width="2" height="4" fill="#F5CF69" />
	<rect x="31" y="44" width="2" height="4" fill="#F5CF69" />
	<rect x="31" y="52" width="2" height="2" fill="#F5CF69" />

	<rect x="11" y="37" width="14" height="14" fill="#ECF6FF" />
	<rect x="39" y="37" width="14" height="14" fill="#ECF6FF" />
	<rect x="16" y="42" width="4" height="4" fill="#2B4E68" />
	<rect x="44" y="42" width="4" height="4" fill="#2B4E68" />

	<rect x="23" y="40" width="18" height="4" fill="#FFFFFF" />
	<rect x="30" y="31" width="4" height="9" fill="#FFFFFF" />
	<rect x="35" y="35" width="9" height="4" fill="#FFFFFF" />
	<rect x="26" y="33" width="6" height="3" fill="#FFFFFF" />
</svg>